# xmcd
#
# Track frame offsets:
#  150
#  11434
#  26667
#  44199
#  59356
#  72824
#  88612
#  100788
#  118396
#  132842
#  150177
#  161705
#  173629
#  188384
#  203112
#  219623
#  243385
#  264608
#  286513
#  297927
#
# Disc length: 4313 seconds
#
# Revision: 0
# Processed by: cddbd v1.4PL0 Copyright (c) Steve Scherf et al.
# Submitted via: AltoMP3_Maker 3.0
#
DISCID=1810d714
DTITLE=Czeslaw Niemen - Czas Jak Rzeka
DYEAR=1900
DGENRE=
TTITLE0=Przyjdz w taka noc
TTITLE1=Sen o Warszawie
TTITLE2=Wspomnienie
TTITLE3=Pod Papugami
TTITLE4=Hej dziewczyno hej
TTITLE5=Czy mnie jeszcze pamietasz
TTITLE6=Zabawa w ciuciubabke
TTITLE7=Wiem, ze nie wrocisz
TTITLE8=Stoje w oknie
TTITLE9=Kleczac przed toba
TTITLE10=Plonaca stodola
TTITLE11=Czas jak rzeka
TTITLE12=Obok nas
TTITLE13=Sukces
TTITLE14=Dziwny jest ten swiat
TTITLE15=Nim przyjdzie wiosna
TTITLE16=Pokoj
TTITLE17=Italiam, italiam
TTITLE18=Dobranoc
TTITLE19=Proroctwo Wernyhory
EXTD=
EXTT0=
EXTT1=
EXTT2=
EXTT3=
EXTT4=
EXTT5=
EXTT6=
EXTT7=
EXTT8=
EXTT9=
EXTT10=
EXTT11=
EXTT12=
EXTT13=
EXTT14=
EXTT15=
EXTT16=
EXTT17=
EXTT18=
EXTT19=
PLAYORDER=
